<svg version="1.2" xmlns="http://www.w3.org/2000/svg" viewBox="0 0 42 32" width="42" height="32">
	<title>gmail-svg</title>
	<style>
		.s0 { fill: #8b8b8b } 
	</style>
	<g id="Layer">
		<g id="Layer">
			<path id="Layer" class="s0" d="m33.7 14.9c-0.3-0.3-0.9-0.4-1.3-0.1l-0.2 0.3c-0.4 0.3-0.5 0.8-0.2 1.2 0.2 0.2 0.4 0.3 0.7 0.3q0.3 0 0.5-0.2l0.3-0.2c0.4-0.3 0.5-0.9 0.2-1.3z"/>
		</g>
	</g>
	<g id="Layer">
		<g id="Layer">
			<path id="Layer" class="s0" d="m31.2 16.9c-0.3-0.3-0.8-0.4-1.2-0.1l-6.1 4.9c-0.4 0.3-0.5 0.9-0.2 1.2 0.2 0.3 0.5 0.4 0.7 0.4q0.3 0 0.5-0.2l6.2-5c0.3-0.3 0.4-0.8 0.1-1.2z"/>
		</g>
	</g>
	<g id="Layer">
		<g id="Layer">
			<path id="Layer" fill-rule="evenodd" class="s0" d="m0 5.1c0-2.8 2.2-5 5-5h32c2.8 0 5 2.2 5 5v21.8c0 2.8-2.2 5-5 5h-32c-2.8 0-5-2.2-5-5zm7.5-3.2l13.5 10.9 13.4-10.9zm32.8 3.4c0-1.8-1.4-3.3-3.1-3.4l-15.7 12.7q-0.2 0.2-0.5 0.2-0.3 0-0.5-0.2l-15.7-12.7c-1.7 0.1-3.1 1.6-3.1 3.4v21.6c0 1.9 1.6 3.4 3.4 3.4h0.1v-21.9c0-0.4 0.1-0.7 0.4-0.8 0.3-0.1 0.7-0.1 1 0.1l14.4 11.7 14.5-11.7c0.2-0.2 0.6-0.2 0.9-0.1 0.3 0.1 0.4 0.4 0.4 0.8v21.9h0.1c1.9 0 3.4-1.5 3.4-3.4zm-5.2 4.9l-13.6 11c-0.3 0.3-0.7 0.3-1 0l-13.6-11v20.1h28.2c0 0 0-20.1 0-20.1z"/>
		</g>
	</g>
</svg>