<svg version="1.2" xmlns="http://www.w3.org/2000/svg" viewBox="0 0 32 32" width="32" height="32">
	<title>instagram-svg</title>
	<style>
		.s0 { fill: #8b8b8b } 
	</style>
	<path id="Layer" fill-rule="evenodd" class="s0" d="m25.6 1.6c1.1 0.4 2 1.1 2.9 1.9 0.8 0.9 1.5 1.8 1.9 2.9 0.5 1.1 0.7 2.3 0.7 3.5v12.2c0 1.2-0.2 2.4-0.7 3.5-0.4 1.1-1.1 2-1.9 2.9-0.9 0.8-1.8 1.5-2.9 1.9-1.1 0.5-2.3 0.7-3.5 0.7h-12.2c-1.2 0-2.4-0.2-3.5-0.7-1.1-0.4-2-1.1-2.9-1.9-0.8-0.9-1.5-1.8-1.9-2.9-0.5-1.1-0.7-2.3-0.7-3.5v-12.2c0-1.2 0.2-2.4 0.7-3.5 0.4-1.1 1.1-2 1.9-2.9 0.9-0.8 1.8-1.5 2.9-1.9 1.1-0.5 2.3-0.7 3.5-0.7h12.2c1.2 0 2.4 0.2 3.5 0.7zm2.5 8.3q0-1.2-0.5-2.3-0.4-1.1-1.3-1.9-0.8-0.9-1.9-1.3-1.1-0.5-2.3-0.5h-12.2q-1.2 0-2.3 0.5-1.1 0.4-1.9 1.3-0.9 0.8-1.3 1.9-0.5 1.1-0.5 2.3v12.2q0 1.2 0.5 2.3 0.4 1.1 1.3 1.9 0.8 0.9 1.9 1.3 1.1 0.5 2.3 0.5h12.2q1.2 0 2.3-0.5 1.1-0.4 1.9-1.3 0.9-0.8 1.3-1.9 0.5-1.1 0.5-2.3z"/>
	<path id="Layer" fill-rule="evenodd" class="s0" d="m16 23.8c-4.3 0-7.8-3.5-7.8-7.8 0-4.3 3.5-7.8 7.8-7.8 4.3 0 7.8 3.5 7.8 7.8 0 4.3-3.5 7.8-7.8 7.8zm3.4-4.4c0.9-0.9 1.4-2.1 1.4-3.4 0-1.3-0.5-2.5-1.4-3.4-0.9-0.9-2.1-1.4-3.4-1.4-1.3 0-2.5 0.5-3.4 1.4-0.9 0.9-1.4 2.1-1.4 3.4 0 1.3 0.5 2.5 1.4 3.4 0.9 0.9 2.1 1.4 3.4 1.4 1.3 0 2.5-0.5 3.4-1.4zm4.4-13c0.8 0 1.5 0.4 1.8 1.1 0.3 0.7 0.1 1.5-0.4 2.1-0.6 0.5-1.4 0.7-2.1 0.4-0.7-0.3-1.1-1-1.1-1.8 0-1 0.7-1.8 1.8-1.8z"/>
</svg>