<svg version="1.2" xmlns="http://www.w3.org/2000/svg" viewBox="0 0 32 32" width="32" height="32">
	<title>linkedin-svg</title>
	<style>
		.s0 { fill: #8b8b8b } 
	</style>
	<path id="Layer" fill-rule="evenodd" class="s0" d="m0 6c0-3.3 2.7-6 6-6h20c3.3 0 6 2.7 6 6v20c0 3.3-2.7 6-6 6h-20c-3.3 0-6-2.7-6-6zm5.1 1.8c0 1.4 1.1 2.5 2.7 2.5 1.7 0 2.8-1.1 2.8-2.5-0.1-1.4-1.1-2.5-2.8-2.5-1.6 0-2.7 1.1-2.7 2.5zm12.6 6.5v-2h-4.8c0.1 1.4 0 14.5 0 14.5h4.8v-8.1c0-0.4 0.1-0.9 0.2-1.2 0.3-0.8 1.1-1.7 2.5-1.7 1.7 0 2.4 1.3 2.4 3.3v7.7h4.9v-8.3c0-4.5-2.4-6.6-5.6-6.6-2.6 0-3.7 1.5-4.4 2.4zm-12.3 12.5h4.8v-14.5h-4.8z"/>
</svg>